<?xml version="1.0" encoding="utf-8"?>
<!-- Generator: Adobe Illustrator 27.5.0, SVG Export Plug-In . SVG Version: 6.00 Build 0)  -->
<svg version="1.1" xmlns="http://www.w3.org/2000/svg" xmlns:xlink="http://www.w3.org/1999/xlink" x="0px" y="0px"
	 viewBox="0 0 750 500" style="enable-background:new 0 0 750 500;" xml:space="preserve">
<g id="BACKGROUND">
	<rect style="fill:#F7E7E2;" width="750" height="500"/>
</g>
<g id="OBJECTS">
	<g>
		<g>
			<path style="fill:#E66F55;" d="M243.368,350.534h4.937v-3.581H64.578c-4.684,0-8.482,3.667-8.482,8.191v29.152
				c0,4.524,3.797,8.191,8.482,8.191h183.727v-3.581h-4.937V350.534z"/>
			<path style="fill:#FFFFFF;" d="M244.039,350.534h-89.763c-3.755,0-6.799,2.923-6.799,6.528v25.314
				c0,3.606,3.044,6.528,6.799,6.528h89.763V350.534z"/>
			<path style="fill:#B53726;" d="M151.636,392.552c-4.863,0-8.819-3.828-8.819-8.534v-28.595c0-4.705,3.956-8.533,8.819-8.533v1
				c-4.311,0-7.819,3.379-7.819,7.533v28.595c0,4.154,3.508,7.534,7.819,7.534V392.552z"/>
			<rect x="154.011" y="355.006" style="fill:#EACFC5;" width="90.028" height="1"/>
			<rect x="154.011" y="383.433" style="fill:#EACFC5;" width="90.028" height="1"/>
			<rect x="158.016" y="372.668" style="fill:#EACFC5;" width="86.023" height="1"/>
			<rect x="171.141" y="376.54" style="fill:#EACFC5;" width="72.898" height="1"/>
			<rect x="188.977" y="364.547" style="fill:#EACFC5;" width="55.063" height="1"/>
			<path style="fill:#B53726;" d="M131.611,384.062H68.679v-28.266h62.932V384.062z M69.679,383.062h60.932v-26.266H69.679V383.062z
				"/>
		</g>
		<g>
			<path style="fill:#BFB685;" d="M571.615,434.423h-4.937v3.581h145.687c4.684,0,8.482-3.667,8.482-8.191v-29.152
				c0-4.524-3.797-8.191-8.482-8.191H566.678v3.581h4.937V434.423z"/>
			<path style="fill:#FFFFFF;" d="M570.944,434.423h89.763c3.755,0,6.799-2.923,6.799-6.528v-25.314
				c0-3.606-3.044-6.529-6.799-6.529h-89.763V434.423z"/>
			<path style="fill:#93854C;" d="M663.347,438.068v-1c4.312,0,7.819-3.379,7.819-7.533V400.94c0-4.154-3.508-7.534-7.819-7.534v-1
				c4.863,0,8.819,3.828,8.819,8.534v28.595C672.166,434.24,668.21,438.068,663.347,438.068z"/>
			<rect x="570.944" y="428.952" style="fill:#EACFC5;" width="90.027" height="1"/>
			<rect x="570.944" y="415.233" style="fill:#EACFC5;" width="77.538" height="1"/>
			<rect x="570.944" y="400.822" style="fill:#EACFC5;" width="72.898" height="1"/>
			<rect x="570.943" y="405.398" style="fill:#EACFC5;" width="82.827" height="1"/>
		</g>
		<g>
			<path style="fill:#FFFFFF;" d="M40.815,434.423h84.428c4.214,0,7.631-2.923,7.631-6.528v-25.314c0-3.605-3.416-6.528-7.631-6.528
				H40.815V434.423z"/>
			<path style="fill:#7A94CC;" d="M268.39,392.47H37.224v4.473h72.255c10.076,0,18.245,8.168,18.245,18.244v0
				c0,10.131-8.213,18.343-18.343,18.343H37.224v4.473h231.044c12.608,0,22.828-10.221,22.828-22.828l0,0
				C291.096,402.636,280.93,392.47,268.39,392.47z"/>
			<path style="fill:#516FA5;" d="M110.178,438.078v-1c12.076,0,21.9-9.824,21.9-21.9c0-12.01-9.771-21.78-21.78-21.78v-1
				c12.561,0,22.78,10.219,22.78,22.78C133.078,427.805,122.805,438.078,110.178,438.078z"/>
			<rect x="40.815" y="428.952" style="fill:#EACFC5;" width="70.624" height="1"/>
			<rect x="40.815" y="407.432" style="fill:#EACFC5;" width="70.624" height="1"/>
			<rect x="40.815" y="403.161" style="fill:#EACFC5;" width="36.857" height="1"/>
		</g>
		<g>
			<path style="fill:#FFFFFF;" d="M679.528,392.47h-124.3c-2.66,0-4.85-2.091-4.973-4.747l-9.151-216.209
				c-0.132-2.837,2.133-5.209,4.973-5.209h142.601c2.84,0,5.105,2.372,4.973,5.209l-9.151,216.209
				C684.377,390.38,682.187,392.47,679.528,392.47z"/>
			<path style="fill:#E66F55;" d="M689.65,337.223l5.022-104.027c0.08-1.66-1.245-3.051-2.907-3.051H542.99
				c-1.662,0-2.987,1.39-2.907,3.051l5.022,104.027c0.075,1.551,1.354,2.77,2.907,2.77h138.732
				C688.296,339.993,689.576,338.774,689.65,337.223z"/>
			<path style="fill:#B53726;" d="M617.378,319.891c-19.201,0-34.822-15.621-34.822-34.822c0-19.2,15.621-34.821,34.822-34.821
				c19.2,0,34.821,15.621,34.821,34.821C652.199,304.27,636.578,319.891,617.378,319.891z M617.378,251.248
				c-18.649,0-33.822,15.172-33.822,33.821c0,18.649,15.173,33.822,33.822,33.822s33.821-15.173,33.821-33.822
				C651.199,266.42,636.027,251.248,617.378,251.248z"/>
			<path style="fill:#703232;" d="M697.716,189.492H537.039c-2.475,0-4.432-2.098-4.259-4.567l1.405-17.138
				c0.156-2.237,2.017-3.973,4.259-3.973h157.868c2.243,0,4.103,1.735,4.259,3.973l1.405,17.138
				C702.148,187.394,700.191,189.492,697.716,189.492z"/>
			<path style="fill:#703232;" d="M674.115,171.492H560.64c-3.461,0-6.152-3.011-5.765-6.45l2.694-23.939
				c0.33-2.934,2.812-5.153,5.765-5.153h108.086c2.953,0,5.435,2.218,5.765,5.153l2.695,23.939
				C680.267,168.481,677.576,171.492,674.115,171.492z"/>
			<rect x="554.838" y="163.314" style="fill:#4C0C09;" width="124.904" height="1"/>
		</g>
		<g>
			<g>
				<path style="fill:#703232;" d="M605.703,349.96c-1.59-2.366-4.253-3.785-7.104-3.785H568.3h-18.836h-30.298
					c-2.851,0-5.514,1.419-7.104,3.785l-33.324,49.598c-2.078,3.093-1.916,7.175,0.4,10.093l19.931,25.115
					c1.624,2.046,4.092,3.238,6.704,3.238h43.691H568.3h43.691c2.612,0,5.081-1.193,6.704-3.238l19.931-25.115
					c2.316-2.919,2.478-7,0.4-10.093L605.703,349.96z"/>
				<g>
					<path style="fill:#935858;" d="M626.483,399.558l-28.108-49.598c-1.341-2.366-3.588-3.785-5.992-3.785h-6.534
						c1.936,0,3.744,1.419,4.824,3.785l22.626,49.598c1.411,3.093,1.301,7.174-0.272,10.093l-13.533,25.115
						c-1.102,2.046-2.779,3.238-4.552,3.238h8.737c2.203,0,4.285-1.193,5.655-3.238l16.812-25.115
						C628.099,406.732,628.236,402.651,626.483,399.558z"/>
				</g>
				<rect x="532.123" y="330.513" style="fill:#703232;" width="53.518" height="15.661"/>
				<rect x="477.284" y="404.251" style="fill:#4C0C09;" width="163.197" height="1"/>
				<rect x="532.123" y="345.675" style="fill:#4C0C09;" width="53.519" height="1"/>
				<rect x="532.123" y="342.42" style="fill:#4C0C09;" width="53.519" height="1"/>
				<rect x="532.123" y="339.166" style="fill:#4C0C09;" width="53.519" height="1"/>
				<rect x="532.123" y="335.912" style="fill:#4C0C09;" width="53.519" height="1"/>
				<rect x="532.123" y="332.658" style="fill:#4C0C09;" width="53.519" height="1"/>
			</g>
			<g>
				<g>
					<path style="fill:#4C0C09;" d="M569.866,330.544v8.686c0,1.893,1.416,3.603,3.307,3.686c1.984,0.087,3.62-1.495,3.62-3.46
						v-8.965c0-0.628-0.509-1.137-1.137-1.137h-4.6C570.399,329.355,569.866,329.887,569.866,330.544z"/>
					<path style="fill:#4C0C09;" d="M540.971,330.537v8.694c0,1.893,1.416,3.603,3.307,3.686c1.984,0.088,3.62-1.495,3.62-3.46
						v-3.959c0-1.893,1.416-3.603,3.307-3.686c1.984-0.087,3.62,1.495,3.62,3.46v0.079c0,1.893,1.416,3.603,3.307,3.686
						c1.984,0.088,3.62-1.495,3.62-3.46v-5.107c0-0.615-0.499-1.114-1.114-1.114h-18.485
						C541.501,329.355,540.971,329.884,540.971,330.537z"/>
				</g>
				<path style="fill:#4C0C09;" d="M558.274,369.187L558.274,369.187c-1.921,0-3.479-1.557-3.479-3.479v-6.953
					c0-1.921,1.557-3.479,3.479-3.479h0c1.921,0,3.479,1.557,3.479,3.479v6.953C561.753,367.629,560.195,369.187,558.274,369.187z"
					/>
			</g>
		</g>
		<g>
			<path style="fill:#FFFFFF;" d="M482.858,58.916H215.883c14.225,0,25.804,11.294,26.279,25.404l0.023,0.023v327.053
				c0,14.514,11.766,26.28,26.28,26.28h240.785V85.31C509.252,70.733,497.435,58.916,482.858,58.916z"/>
			<path style="fill:#FFFFFF;" d="M163.021,198.9c14.233,0,25.817-11.306,26.281-25.426v-72.941H110.46l26.28,35.961v36.98
				C137.204,187.593,148.789,198.9,163.021,198.9z"/>
			<path style="fill:#EACFC5;" d="M110.46,100.533c-14.233,0-25.817,11.306-26.281,25.426v29.237h52.561v-29.237
				C136.277,111.839,124.693,100.533,110.46,100.533z"/>
			<path style="fill:#EACFC5;" d="M215.583,59.217c-14.233,0-25.817,11.306-26.281,25.426v65.596v23.234v0.054l-0.003,0.003
				c-0.493,14.093-12.064,25.369-26.277,25.369h78.842V84.643C241.4,70.523,229.815,59.217,215.583,59.217z"/>
			<rect x="323.543" y="90.523" style="fill:#EACFC5;" width="106.536" height="1"/>
			<rect x="351.669" y="121.006" style="fill:#EACFC5;" width="38.704" height="1"/>
			<rect x="264.182" y="121.006" style="fill:#EACFC5;" width="70.841" height="1"/>
			<rect x="301.133" y="137.85" style="fill:#EACFC5;" width="89.24" height="1"/>
			<rect x="264.182" y="137.85" style="fill:#EACFC5;" width="26.121" height="1"/>
			<rect x="358.487" y="154.696" style="fill:#EACFC5;" width="31.886" height="1"/>
			<rect x="264.182" y="154.696" style="fill:#EACFC5;" width="82.874" height="1"/>
			<rect x="315.171" y="171.541" style="fill:#EACFC5;" width="75.202" height="1"/>
			<rect x="264.182" y="171.541" style="fill:#EACFC5;" width="38.956" height="1"/>
			<rect x="455.748" y="205.231" style="fill:#EACFC5;" width="30.883" height="1"/>
			<rect x="360.441" y="205.231" style="fill:#EACFC5;" width="81.871" height="1"/>
			<rect x="414.437" y="222.077" style="fill:#EACFC5;" width="72.193" height="1"/>
			<rect x="360.441" y="222.077" style="fill:#EACFC5;" width="36.549" height="1"/>
			<rect x="444.317" y="238.922" style="fill:#EACFC5;" width="42.313" height="1"/>
			<rect x="360.441" y="238.922" style="fill:#EACFC5;" width="71.042" height="1"/>
			<rect x="416.442" y="255.767" style="fill:#EACFC5;" width="70.188" height="1"/>
			<rect x="360.441" y="255.767" style="fill:#EACFC5;" width="45.975" height="1"/>
			<rect x="362.567" y="289.458" style="fill:#EACFC5;" width="27.806" height="1"/>
			<rect x="264.182" y="289.458" style="fill:#EACFC5;" width="86.082" height="1"/>
			<rect x="310.759" y="306.303" style="fill:#EACFC5;" width="79.614" height="1"/>
			<rect x="264.182" y="306.303" style="fill:#EACFC5;" width="31.937" height="1"/>
			<rect x="345.251" y="323.148" style="fill:#EACFC5;" width="45.122" height="1"/>
			<rect x="264.182" y="323.148" style="fill:#EACFC5;" width="69.438" height="1"/>
			<rect x="313.165" y="339.994" style="fill:#EACFC5;" width="77.208" height="1"/>
			<rect x="264.182" y="339.994" style="fill:#EACFC5;" width="37.552" height="1"/>
			<rect x="445.119" y="373.384" style="fill:#EACFC5;" width="41.512" height="1"/>
			<rect x="393.455" y="373.384" style="fill:#EACFC5;" width="33.015" height="1"/>
			<rect x="360.441" y="373.384" style="fill:#EACFC5;" width="24.918" height="1"/>
			<path style="fill:#F7E7E2;" d="M535.532,389.016L535.532,389.016H294.511v23.234c-0.463,14.12-12.048,25.426-26.281,25.426
				h267.302l0,0c14.233,0,25.817-11.306,26.281-25.426v-23.234H535.532z"/>
		</g>
		<g>
			<path style="fill:#EFB05E;" d="M528.619,438.005h-60.504c-1.237,0-2.239-1.003-2.239-2.239v-21.148
				c0-1.237,1.003-2.239,2.239-2.239h60.504c1.237,0,2.239,1.003,2.239,2.239v21.148
				C530.858,437.002,529.856,438.005,528.619,438.005z"/>
			<g>
				<rect x="470.155" y="415.733" style="fill:#D38931;" width="1" height="19.018"/>
				<rect x="475.697" y="415.733" style="fill:#D38931;" width="1" height="19.018"/>
				<rect x="481.239" y="415.733" style="fill:#D38931;" width="1" height="19.018"/>
				<rect x="486.782" y="415.733" style="fill:#D38931;" width="1" height="19.018"/>
				<rect x="492.324" y="415.733" style="fill:#D38931;" width="1" height="19.018"/>
				<rect x="497.867" y="415.733" style="fill:#D38931;" width="1" height="19.018"/>
				<rect x="503.409" y="415.733" style="fill:#D38931;" width="1" height="19.018"/>
				<rect x="508.951" y="415.733" style="fill:#D38931;" width="1" height="19.018"/>
				<rect x="514.494" y="415.733" style="fill:#D38931;" width="1" height="19.018"/>
				<rect x="520.036" y="415.733" style="fill:#D38931;" width="1" height="19.018"/>
				<rect x="525.579" y="415.733" style="fill:#D38931;" width="1" height="19.018"/>
			</g>
		</g>
		<g>
			<g>
				<path style="fill:#EFB05E;" d="M161.338,114.92h3.298c1.288,0,2.332,1.159,2.332,2.588v39.693c0,0.447-0.326,0.809-0.729,0.809
					h-1.348c-0.408,0-0.738-0.367-0.738-0.819v-10.445h1.194V119.39h-4.38L161.338,114.92z"/>
				<path style="fill:#703232;" d="M147.548,176.379l1.844-69.049c0.021-0.773,0.516-1.387,1.12-1.387h10.656
					c0.604,0,1.1,0.614,1.12,1.387l1.844,69.049c0.022,0.812-0.486,1.485-1.12,1.485h-14.344
					C148.034,177.865,147.526,177.191,147.548,176.379z"/>
				<polygon style="fill:#EFB05E;" points="162.521,116.049 149.159,116.049 149.219,113.791 162.461,113.791 				"/>
				<path style="fill:#EFB05E;" d="M162.288,107.33l0.112,4.19l-13.121,0l0.112-4.19c0.021-0.773,0.516-1.387,1.12-1.387h10.656
					C161.772,105.943,162.268,106.557,162.288,107.33z"/>
				<path style="fill:#703232;" d="M150.771,297.003l-2.113-40.676h14.363l-2.113,40.676c-0.053,1.025-0.659,1.818-1.387,1.818
					h-7.363C151.429,298.821,150.824,298.028,150.771,297.003z"/>
				<path style="fill:#703232;" d="M151.592,94.852l-0.88,11.091h10.255l-0.88-11.091c-0.127-1.601-1.179-2.819-2.435-2.819h-3.626
					C152.771,92.034,151.719,93.252,151.592,94.852z"/>
				<path style="fill:#EFB05E;" d="M161.268,313.755c-2.646,3.274-4.217,7.247-5.302,11.538c-1.085-4.29-2.656-8.264-5.302-11.538
					c0.977-5.06,1.613-10.04,1.873-14.934h3.429h3.429C159.639,303.767,160.293,308.748,161.268,313.755z"/>
				<rect x="155.466" y="310.493" style="fill:#703232;" width="1" height="14.799"/>
				<path style="fill:#703232;" d="M155.924,310.993c-0.709,0-1.286-0.676-1.286-1.507c0-0.83,0.577-1.506,1.286-1.506
					c0.708,0,1.285,0.676,1.285,1.506C157.209,310.317,156.633,310.993,155.924,310.993z M155.924,308.98
					c-0.117,0-0.286,0.197-0.286,0.506c0,0.309,0.169,0.507,0.286,0.507c0.116,0,0.285-0.197,0.285-0.507
					C156.209,309.178,156.04,308.98,155.924,308.98z"/>
				
					<rect x="116.608" y="209.914" transform="matrix(6.123234e-17 -1 1 6.123234e-17 -61.2561 372.9358)" style="fill:#EFB05E;" width="78.463" height="14.363"/>
			</g>
			<g>
				<path style="fill:#EFB05E;" d="M150.519,310.686v-4.663h-0.253c-0.68,0-1.232-0.552-1.232-1.232v-0.272
					c0-0.68,0.552-1.232,1.232-1.232h0.253v-2.485h-0.253c-0.68,0-1.232-0.552-1.232-1.232v-0.271c0-0.68,0.552-1.232,1.232-1.232
					h11.448c0.681,0,1.232,0.552,1.232,1.232v0.271c0,0.681-0.552,1.232-1.232,1.232h-0.253v2.485h0.253
					c0.681,0,1.232,0.552,1.232,1.232v0.272c0,0.68-0.552,1.232-1.232,1.232h-0.253v4.663l5.002,10.359v3.564h-9.723h-1.501h-9.723
					v-3.564L150.519,310.686z"/>
				<rect x="150.519" y="300.303" style="fill:#D38931;" width="10.942" height="1"/>
				<rect x="150.519" y="302.69" style="fill:#D38931;" width="10.942" height="1"/>
				<rect x="150.519" y="305.474" style="fill:#D38931;" width="10.942" height="1"/>
				<rect x="150.519" y="310.051" style="fill:#D38931;" width="10.942" height="1"/>
				<rect x="145.517" y="320.728" style="fill:#D38931;" width="20.946" height="1"/>
			</g>
			<g>
				
					<rect x="111.486" y="324.609" transform="matrix(-1 -1.224647e-16 1.224647e-16 -1 311.848 659.4901)" style="fill:#703232;" width="88.875" height="10.271"/>
				
					<rect x="103.091" y="338.847" transform="matrix(-1 -1.224647e-16 1.224647e-16 -1 311.848 685.7997)" style="fill:#703232;" width="105.666" height="8.106"/>
				<polygon style="fill:#703232;" points="111.486,334.881 200.361,334.881 208.757,338.847 103.091,338.847 				"/>
				<rect x="111.487" y="334.381" style="fill:#4C0C09;" width="88.875" height="1"/>
				<rect x="103.091" y="338.346" style="fill:#4C0C09;" width="105.667" height="1"/>
			</g>
		</g>
		<g>
			<polygon style="fill:#EA9E6A;" points="306.131,406.12 304.101,431.41 286.343,431.41 288.373,406.12 			"/>
			<path style="fill:#E66F55;" d="M286.215,426.375l-1.051,11.63h48.854l-2.819-5.246c-1.992-3.706-5.521-6.341-9.641-7.197
				l-16.31-3.096L286.215,426.375z"/>
			<polygon style="fill:#EA9E6A;" points="218.505,406.12 210.49,431.41 228.248,431.41 236.263,406.12 			"/>
			<path style="fill:#E66F55;" d="M231.139,426.375l-1.495,11.63h-44.871l2.819-5.246c1.992-3.706,5.521-6.341,9.641-7.197
				l15.248-3.096L231.139,426.375z"/>
			<polygon style="fill:#703232;" points="253.168,235.205 208.514,419.952 237.779,419.952 284.874,271.176 281.818,419.952 
				309.322,419.952 325.716,227.183 			"/>
			<g>
				<path style="fill:#EA9E6A;" d="M434.417,153.769l-0.033-0.099c-0.429-1.292-1.821-1.992-3.113-1.57l0-0.001l3.73-1.239
					c1.296-0.43,1.997-1.83,1.567-3.125l-0.033-0.099c-0.43-1.296-1.83-1.997-3.125-1.567l1.641-0.545
					c1.296-0.43,1.997-1.83,1.567-3.125l-0.033-0.099c-0.43-1.296-1.829-1.997-3.125-1.567l-1.641,0.545
					c1.296-0.43,1.997-1.83,1.567-3.125l-0.033-0.099c-0.43-1.296-1.83-1.997-3.125-1.567l-1.1,0.365l-9.384,3.116l-8.211,2.727
					l1.215-5.438c0.748-2.642-0.188-4.073-2.089-4.811l-7.844,10.882c-2.385,3.309-3.036,7.562-1.751,11.433l0.947,2.852
					c1.573,4.737,6.689,7.303,11.427,5.729l8.928-2.965l9.619-3.194l0.865-0.287C434.145,156.464,434.847,155.065,434.417,153.769z"
					/>
				
					<rect x="418.644" y="142.908" transform="matrix(0.9493 -0.3144 0.3144 0.9493 -23.5155 141.0317)" style="fill:#CC7133;" width="13.519" height="1"/>
				
					<rect x="420.235" y="147.699" transform="matrix(0.9493 -0.3144 0.3144 0.9493 -24.9414 141.7749)" style="fill:#CC7133;" width="13.519" height="1"/>
				
					<rect x="421.919" y="153.048" transform="matrix(0.9493 -0.3144 0.3144 0.9493 -26.6245 142.0212)" style="fill:#CC7133;" width="10.082" height="1"/>
				<path style="fill:#CC7133;" d="M408.794,151.887l-0.518-0.855c4.958-3.004,2.889-7.929,2.798-8.137l0.916-0.401
					C412.016,142.552,414.513,148.422,408.794,151.887z"/>
			</g>
			<rect x="280.224" y="110.114" style="fill:#EA9E6A;" width="21.542" height="31.287"/>
			<path style="fill:#7A94CC;" d="M349.482,190.876L349.482,190.876c-4.433-7.09-2.28-16.43,4.81-20.864l46.303-25.104l13.13,19.571
				l-43.379,31.205C363.256,200.119,353.915,197.965,349.482,190.876z"/>
			<path style="fill:#7A94CC;" d="M372.912,193.46L372.912,193.46c-5.938,5.887-15.524,5.846-21.411-0.092l-39.015-39.352
				c-5.887-5.938-5.846-15.523,0.092-21.41l0,0c5.938-5.887,15.523-5.846,21.41,0.092l39.015,39.352
				C378.891,177.988,378.85,187.574,372.912,193.46z"/>
			<path style="fill:#7A94CC;" d="M226.817,210.487L226.817,210.487c-7.481-3.734-10.519-12.826-6.785-20.307l26.512-53.118
				c3.734-7.481,12.826-10.519,20.307-6.785v0c7.481,3.734,10.519,12.826,6.785,20.307l-26.512,53.118
				C243.391,211.183,234.299,214.221,226.817,210.487z"/>
			<path style="fill:#7A94CC;" d="M301.767,124.528c-6.064,3.837-14.794,3.144-21.516,0l-22.808,4.265
				c-7.546,1.688-12.795,8.545-12.456,16.27l2.831,94.318c0.062,2.051,1.742,3.682,3.794,3.682h72.693
				c1.069,0,1.966-0.805,2.082-1.868l10.622-97.895c0.252-7.487-5.037-14.02-12.412-15.333L301.767,124.528z"/>
			
				<rect x="359.863" y="168.052" transform="matrix(0.172 -0.9851 0.9851 0.172 135.6006 498.4359)" style="fill:#516FA5;" width="8.892" height="0.999"/>
			<g>
				<path style="fill:#703232;" d="M293.662,116.908l-1.071,0.165c-10.519,1.621-20.359-5.593-21.98-16.111L268.615,88
					c-1.621-10.519,5.593-20.359,16.111-21.979l1.071-0.165c10.519-1.62,20.359,5.593,21.98,16.111l1.997,12.962
					C311.394,105.447,304.181,115.288,293.662,116.908z"/>
				<path style="fill:#EA9E6A;" d="M304.496,88.212l-0.545-4.429c-9.271,4.858-24.148,5.812-31.887-0.932l1.559,10.117
					c-3.1,0.478-5.226,3.378-4.748,6.478c0.478,3.1,3.378,5.226,6.478,4.748l0.537,3.485c1.313,8.525,9.289,14.371,17.815,13.058
					c8.525-1.313,14.372-9.289,13.058-17.814l-0.537-3.485c3.1-0.478,5.226-3.378,4.749-6.478
					C310.496,89.86,307.596,87.734,304.496,88.212z"/>
				<path style="fill:#CC7133;" d="M291.283,121.425c-3.499,0-6.881-1.136-9.723-3.3l0.605-0.795
					c3.298,2.511,7.374,3.549,11.462,2.914c2.913-0.449,5.607-1.723,7.791-3.684l0.668,0.744c-2.329,2.091-5.201,3.449-8.307,3.928
					C292.945,121.361,292.11,121.425,291.283,121.425z"/>
				<g>
					<path style="fill:#703232;" d="M282.592,96.16c0.101,0.653-0.347,1.264-1,1.365c-0.653,0.101-1.264-0.347-1.365-1
						c-0.101-0.653,0.347-1.264,1-1.365C281.88,95.06,282.491,95.507,282.592,96.16z"/>
					<path style="fill:#703232;" d="M299.269,93.591c0.101,0.653-0.347,1.264-1,1.365c-0.653,0.101-1.264-0.347-1.365-1
						s0.347-1.264,1-1.365C298.557,92.49,299.168,92.938,299.269,93.591z"/>
					<path style="fill:#CC7133;" d="M292.247,108.898c-0.54,0-1.071-0.139-1.532-0.405l0.502-0.865
						c0.399,0.232,0.883,0.317,1.357,0.246c0.539-0.083,1.012-0.358,1.329-0.773l0.795,0.607c-0.477,0.621-1.176,1.031-1.972,1.154
						C292.567,108.886,292.406,108.898,292.247,108.898z"/>
					<path style="fill:#CC7133;" d="M290.753,106.448c-1.322,0-2.621-0.339-3.749-0.991l0.5-0.865
						c1.266,0.731,2.783,1.008,4.274,0.778c1.694-0.261,3.181-1.128,4.186-2.44l0.795,0.607c-1.163,1.519-2.878,2.521-4.828,2.821
						C291.539,106.419,291.144,106.448,290.753,106.448z"/>
					<path style="fill:#CC7133;" d="M291.34,100.955l-0.537-0.844c0.67-0.427,1.123-1.091,1.276-1.87
						c0.153-0.78-0.016-1.566-0.475-2.214l-2.148-3.031l0.816-0.578l2.147,3.031c0.618,0.874,0.846,1.934,0.64,2.984
						C292.853,99.484,292.243,100.38,291.34,100.955z"/>
					<path style="fill:#703232;" d="M278.803,93.857l-0.57-0.822c1.394-0.967,2.995-1.296,4.753-0.979l-0.178,0.984
						C281.3,92.77,279.986,93.035,278.803,93.857z"/>
					<path style="fill:#703232;" d="M295.639,91.155l-0.535-0.846c1.541-0.975,3.169-1.214,4.834-0.71l-0.289,0.957
						C298.252,90.134,296.942,90.329,295.639,91.155z"/>
				</g>
				
					<rect x="274.506" y="99.665" transform="matrix(0.9884 -0.1522 0.1522 0.9884 -12.3115 43.0423)" style="fill:#CC7133;" width="1" height="4.556"/>
				
					<rect x="305.388" y="94.907" transform="matrix(0.9883 -0.1524 0.1524 0.9883 -11.2373 47.7489)" style="fill:#CC7133;" width="1" height="4.556"/>
			</g>
			<polygon style="fill:#4C0C09;" points="285.356,271.308 284.391,271.045 285.821,265.831 301.823,259.408 302.196,260.336 
				286.655,266.573 			"/>
			<g>
				<path style="fill:#FFFFFF;" d="M340.915,199.282h-38.764c-2.609,0-4.534-2.437-3.93-4.975l12.157-51.087h43.878L340.915,199.282
					z"/>
				<path style="fill:#F7E7E2;" d="M345.784,194.848h-4.506h-4.506h-29.651c-0.041,2.455-2.041,4.434-4.506,4.434h38.663l0,0
					C343.743,199.282,345.744,197.303,345.784,194.848z"/>
			</g>
			<g>
				<g>
					<path style="fill:#EA9E6A;" d="M320.528,183.821l-0.002-0.105c-0.026-1.361-1.148-2.443-2.507-2.424v-0.001l3.93-0.076
						c1.365-0.026,2.45-1.154,2.424-2.519l-0.002-0.105c-0.026-1.365-1.154-2.45-2.519-2.424l1.729-0.033
						c1.365-0.026,2.45-1.154,2.424-2.519l-0.002-0.105c-0.026-1.365-1.154-2.45-2.519-2.424l-1.729,0.033
						c1.365-0.026,2.45-1.154,2.424-2.519l-0.002-0.105c-0.026-1.365-1.154-2.45-2.519-2.424l-1.159,0.022l-9.885,0.191
						l-5.765,0.111l0.965-3.994l-8.19,0.665c-3.054,0.248-5.688,2.242-6.755,5.115l-2.483,6.685l0.058,3.005
						c0.096,4.991,4.22,8.959,9.211,8.863l9.406-0.181l10.133-0.195l0.911-0.018C319.469,186.314,320.554,185.186,320.528,183.821z"
						/>
					
						<rect x="308.237" y="170.75" transform="matrix(0.9998 -0.0195 0.0195 0.9998 -3.2789 6.1738)" style="fill:#CC7133;" width="13.519" height="1"/>
					
						<rect x="308.335" y="175.799" transform="matrix(0.9998 -0.0195 0.0195 0.9998 -3.3773 6.1767)" style="fill:#CC7133;" width="13.518" height="1"/>
					
						<rect x="308.432" y="180.896" transform="matrix(0.9998 -0.0196 0.0196 0.9998 -3.4945 6.1777)" style="fill:#CC7133;" width="10.082" height="1"/>
				</g>
				<path style="fill:#7A94CC;" d="M219.48,201.984L219.48,201.984c2.702,7.913,11.307,12.137,19.22,9.435l59.306-22.801
					l-8.107-24.853l-60.984,18.999C221.002,185.466,216.778,194.071,219.48,201.984z"/>
				
					<rect x="233.136" y="171.902" transform="matrix(0.9547 -0.2976 0.2976 0.9547 -39.4321 85.8486)" style="fill:#516FA5;" width="58.078" height="1"/>
				
					<rect x="245.061" y="197.945" transform="matrix(0.9336 -0.3584 0.3584 0.9336 -53.0227 110.8237)" style="fill:#516FA5;" width="54.769" height="1"/>
			</g>
		</g>
		<rect x="22.653" y="437.505" style="fill:#703232;" width="704.693" height="1"/>
	</g>
	<path style="fill:#E66F55;" d="M558.686,262.407c0-0.305,0-0.61,0-0.915"/>
</g>
</svg>
